<?xml version="1.0" encoding="utf-8"?>
<!-- Generator: Adobe Illustrator 21.0.2, SVG Export Plug-In . SVG Version: 6.00 Build 0)  -->
<svg version="1.1" id="Layer_1" xmlns="http://www.w3.org/2000/svg" xmlns:xlink="http://www.w3.org/1999/xlink" x="0px" y="0px"
	 viewBox="0 0 1018 382" style="enable-background:new 0 0 1018 382;" xml:space="preserve">
<g>
	<path d="M47,347V28h67v319H47z"/>
	<path d="M372.2,284c-10.6,37.9-45.4,69.6-100.9,69.6c-60.4,0-114.1-43.2-114.1-116.8c0-70.5,52.4-115.4,109.3-115.4
		c67.9,0,109.7,41.9,109.7,112.4c0,9.3-0.9,19.4-1.3,20.7H222.4c1.3,24.7,23.8,42.3,49.8,42.3c24.2,0,37.9-11.5,44.1-28.6L372.2,284
		z M311.4,211.3c-0.9-16.7-12.3-37-44.1-37c-28.2,0-42.3,20.7-43.6,37H311.4z"/>
	<path d="M547.1,347h-67.4l-89.9-219h72.7l50.7,136.1L559.9,128h70.5L547.1,347z"/>
	<path d="M856.9,284c-10.6,37.9-45.4,69.6-100.9,69.6c-60.4,0-114.1-43.2-114.1-116.8c0-70.5,52.4-115.4,109.3-115.4
		c67.9,0,109.7,41.9,109.7,112.4c0,9.3-0.9,19.4-1.3,20.7H707.1c1.3,24.7,23.8,42.3,49.8,42.3c24.2,0,37.9-11.5,44.1-28.6L856.9,284
		z M796.1,211.3c-0.9-16.7-12.3-37-44.1-37c-28.2,0-42.3,20.7-43.6,37H796.1z"/>
	<path d="M904,347V28h67v319H904z"/>
</g>
</svg>
